<svg xmlns="http://www.w3.org/2000/svg" width="21.725" height="21.725" viewBox="0 0 21.725 21.725">
  <defs>
    <style>
      .cls-1 {
        fill: #fff;
      }
    </style>
  </defs>
  <path id="info_FILL0_wght400_GRAD0_opsz48" class="cls-1" d="M14.129,20.294h1.629V13.776H14.129Zm.733-8.527a.892.892,0,0,0,.638-.244.823.823,0,0,0,.258-.625.913.913,0,0,0-.258-.652.886.886,0,0,0-1.276,0,.913.913,0,0,0-.258.652.823.823,0,0,0,.258.625A.892.892,0,0,0,14.862,11.767Zm0,13.958a11.017,11.017,0,0,1-4.291-.828,10.513,10.513,0,0,1-5.744-5.744A11.017,11.017,0,0,1,4,14.862,10.947,10.947,0,0,1,4.828,10.6,10.6,10.6,0,0,1,7.123,7.15,10.829,10.829,0,0,1,14.862,4,10.775,10.775,0,0,1,25.725,14.862a10.829,10.829,0,0,1-3.15,7.739A10.6,10.6,0,0,1,19.126,24.9,10.947,10.947,0,0,1,14.862,25.725Zm0-10.862Zm0,9.233A8.889,8.889,0,0,0,21.38,21.38,8.889,8.889,0,0,0,24.1,14.862,8.889,8.889,0,0,0,21.38,8.345a8.889,8.889,0,0,0-6.517-2.716A8.889,8.889,0,0,0,8.345,8.345a8.889,8.889,0,0,0-2.716,6.517A8.889,8.889,0,0,0,8.345,21.38,8.889,8.889,0,0,0,14.862,24.1Z" transform="translate(-4 -4)"/>
</svg>
